<svg xmlns="http://www.w3.org/2000/svg" viewBox="0 0 133 52"><defs><style>.cls-1{fill:#5b254e;}.cls-2{fill:#7b969f;}.cls-3{fill:#00a1aa;}</style></defs><title>Fichier 2</title><g id="Calque_2" data-name="Calque 2"><g id="Calque_1-2" data-name="Calque 1"><path class="cls-1" d="M77.17,18a11,11,0,0,1-2.09,3.69A9.19,9.19,0,0,1,71.9,24a9.86,9.86,0,0,1-4,.81h-.41a28,28,0,0,1-3.14-.29V2.5c.28,0,2.72-.28,3.14-.28h.33A10,10,0,0,1,71.92,3a9.25,9.25,0,0,1,3.2,2.37,10.91,10.91,0,0,1,2.07,3.68,10.43,10.43,0,0,1,.73,4A14.92,14.92,0,0,1,77.17,18M83.1,8.25a10.65,10.65,0,0,0-3.26-4.14,15.83,15.83,0,0,0-5.39-2.6,28.16,28.16,0,0,0-7.53-.9h-8V26.39H68a22.4,22.4,0,0,0,7-1,14.64,14.64,0,0,0,5.08-2.76,11.46,11.46,0,0,0,3.1-4.26,14,14,0,0,0,1-5.46A9.67,9.67,0,0,0,83.1,8.25"/><path class="cls-1" d="M51.11,18.32,36.73,3a5.91,5.91,0,0,0-2.44-1.82A9.19,9.19,0,0,0,31.47.64c0,.85,0,4.3,0,4.8v21h2.09V7.26L51.28,26.51H53.2V.61H51.11V18.32"/><path class="cls-1" d="M20.33,21.15a16.18,16.18,0,0,0,.17,2.54,3.77,3.77,0,0,0,.6,1.61,2.36,2.36,0,0,0,1.18.85,5.83,5.83,0,0,0,1.81.24h1.68V.61H20.33V21.15"/><polygon class="cls-1" points="0 0.61 0 26.39 5.43 26.39 5.43 13.68 14.63 13.68 14.63 11.87 5.43 11.87 5.43 2.42 16.57 2.42 16.58 0.61 0 0.61"/><polygon class="cls-2" points="104.25 13.56 90.68 3.36 90.68 23.76 104.25 13.56"/><polygon class="cls-3" points="101.55 1.62 101.55 8.94 105.5 11.91 107.69 13.56 105.5 15.21 101.55 18.17 101.55 25.5 117.44 13.56 101.55 1.62"/><polygon class="cls-1" points="114.95 0 114.95 9.11 118.68 11.91 120.88 13.56 118.68 15.21 114.95 18.01 114.95 27.11 133 13.56 114.95 0"/><path class="cls-1" d="M3.82,33.43c2.73,0,3.9.21,5.18.93,1.75,1,2.73,3,2.73,5.54s-1,4.51-2.77,5.52c-1.36.77-2.51,1-5.47,1H0v-13Zm0,12.18c2,0,3.08-.35,3.88-1.26A6.5,6.5,0,0,0,8.92,40c0-2.26-.5-3.91-1.5-4.8a4.79,4.79,0,0,0-3.43-1H2.65v11.4Z"/><path class="cls-1" d="M16.6,34.32a1.3,1.3,0,0,1-1.47,1.29c-.93,0-1.51-.51-1.51-1.32A1.33,1.33,0,0,1,15.12,33a1.32,1.32,0,0,1,1.48,1.36m-.3,12.07H13.89V37.92H16.3Z"/><path class="cls-1" d="M24.14,44.6a2.75,2.75,0,0,1-2.95,2c-1.85,0-3-.93-3-2.51a2.32,2.32,0,0,1,1.48-2.23,11.83,11.83,0,0,1,4.31-.6v-.9c0-1.49-.39-2-1.46-2s-1.48.56-1.5,1.84v.1H18.68a2.4,2.4,0,0,1,.84-1.79,4.61,4.61,0,0,1,3.06-.82,4.22,4.22,0,0,1,3.19,1A3.08,3.08,0,0,1,26.43,41v5.35H24.14ZM20.67,44c0,1.1.48,1.73,1.36,1.73a1.85,1.85,0,0,0,1.73-1.36A7.72,7.72,0,0,0,24,41.88c-2.46,0-3.35.56-3.35,2.12"/><path class="cls-1" d="M37.23,38.77H35.37a2.67,2.67,0,0,1,.9,2.12,2.76,2.76,0,0,1-.93,2.21,4.89,4.89,0,0,1-3.1,1A5.16,5.16,0,0,1,31,43.92c-.58.23-.82.52-.82,1,0,.64.37.86,1.82,1l1.77.12a5.21,5.21,0,0,1,2.38.54,2.31,2.31,0,0,1,1,2c0,2.2-1.85,3.5-5,3.5-2.67,0-4.26-1-4.26-2.68,0-.91.46-1.53,1.57-2.12a1.8,1.8,0,0,1-.7-1.42c0-.87.49-1.47,1.64-2a3,3,0,0,1-2-2.85c0-1.94,1.52-3.21,3.86-3.21A5.79,5.79,0,0,1,34,38h3.22Zm-5.6,9a4,4,0,0,1-1.79-.35A2,2,0,0,0,29.16,49c0,1.38,1.27,2.27,3.23,2.27s3.26-.83,3.26-2c0-.79-.55-1.16-1.83-1.24Zm-1-7c0,1.79.53,2.6,1.68,2.6S34,42.6,34,40.91s-.53-2.56-1.65-2.56-1.7.85-1.7,2.48"/><path class="cls-1" d="M40.85,40.21A2.93,2.93,0,0,1,44,37.72,2.79,2.79,0,0,1,46.56,39,3.61,3.61,0,0,1,47,41v5.42H44.53V41a3.41,3.41,0,0,0-.25-1.71,1.26,1.26,0,0,0-1.11-.62,1.86,1.86,0,0,0-1.6,1,5.88,5.88,0,0,0-.55,3v3.83H38.61V37.92h2.24Z"/><path class="cls-1" d="M57,39a4.67,4.67,0,0,1,1.07,3.24,4.45,4.45,0,0,1-1.33,3.34,5.16,5.16,0,0,1-3.31,1.09,4.88,4.88,0,0,1-3.56-1.34,4.74,4.74,0,0,1-1.08-3.17c0-2.83,1.76-4.5,4.7-4.5A4.82,4.82,0,0,1,57,39m-5.67,3.34c0,2.41.7,3.63,2.06,3.63S55.5,44.77,55.5,42c0-2.51-.69-3.69-2.09-3.69s-2.1,1.22-2.1,4"/><path class="cls-1" d="M61.42,43.86V44c0,1.3.58,1.94,1.79,1.94a1.4,1.4,0,0,0,1.58-1.34c0-.68-.45-1.07-1.54-1.38l-1-.27a4.35,4.35,0,0,1-1.84-.82,2.14,2.14,0,0,1-.79-1.73c0-1.63,1.4-2.72,3.48-2.72s3.28.92,3.43,2.59h-2c0-1.36-.46-1.91-1.52-1.91a1.33,1.33,0,0,0-1.48,1.27c0,.64.45,1,1.47,1.32l1.26.35c1.7.44,2.48,1.24,2.48,2.52,0,1.73-1.39,2.8-3.63,2.8s-3.68-1-3.72-2.76Z"/><path class="cls-1" d="M71.41,34.32A1.3,1.3,0,0,1,70,35.61c-.94,0-1.52-.51-1.52-1.32A1.33,1.33,0,0,1,69.93,33a1.32,1.32,0,0,1,1.48,1.36m-.29,12.07H68.7V37.92h2.42Z"/><path class="cls-1" d="M75.09,43.86V44c0,1.3.58,1.94,1.79,1.94a1.4,1.4,0,0,0,1.58-1.34c0-.68-.45-1.07-1.54-1.38l-1-.27A4.29,4.29,0,0,1,74,42.13a2.12,2.12,0,0,1-.8-1.73c0-1.63,1.4-2.72,3.49-2.72s3.27.92,3.43,2.59h-2c0-1.36-.47-1.91-1.52-1.91a1.33,1.33,0,0,0-1.48,1.27c0,.64.45,1,1.46,1.32l1.26.35c1.7.44,2.48,1.24,2.48,2.52,0,1.73-1.38,2.8-3.62,2.8s-3.69-1-3.73-2.76Z"/><path class="cls-1" d="M89.87,38.68v7.71H87.46V38.68H86v-.76h1.5c0-3.38,1.81-5.32,5-5.48v2.08a2.49,2.49,0,0,0-1.56-.6,1.81,1.81,0,0,0-1.83,2,2.69,2.69,0,0,0,.64,1.73.44.44,0,0,1,.12.29h2v.76Z"/><path class="cls-1" d="M100.39,39a4.62,4.62,0,0,1,1.08,3.24,4.45,4.45,0,0,1-1.33,3.34,5.18,5.18,0,0,1-3.31,1.09,4.91,4.91,0,0,1-3.57-1.34,4.79,4.79,0,0,1-1.07-3.17c0-2.83,1.76-4.5,4.7-4.5a4.78,4.78,0,0,1,3.5,1.34m-5.66,3.34c0,2.41.7,3.63,2.06,3.63s2.12-1.19,2.12-3.92c0-2.51-.68-3.69-2.08-3.69s-2.1,1.22-2.1,4"/><path class="cls-1" d="M105.79,37.92v2.56c.66-2,1.44-2.6,3.31-2.74V40a4.36,4.36,0,0,0-1.4-.25c-1.11,0-1.77.86-1.77,2.29v4.32h-2.42V37.92Z"/><path class="cls-1" d="M120.83,44.6a2.75,2.75,0,0,1-3,2c-1.85,0-3-.93-3-2.51a2.32,2.32,0,0,1,1.48-2.23,11.83,11.83,0,0,1,4.31-.6v-.9c0-1.49-.39-2-1.46-2s-1.48.56-1.5,1.84v.1h-2.38a2.4,2.4,0,0,1,.84-1.79,4.63,4.63,0,0,1,3.06-.82,4.22,4.22,0,0,1,3.19,1,3.08,3.08,0,0,1,.67,2.36v5.35h-2.3Zm-3.47-.6c0,1.1.49,1.73,1.36,1.73a1.86,1.86,0,0,0,1.74-1.36,8.11,8.11,0,0,0,.25-2.49c-2.45,0-3.35.56-3.35,2.12"/><rect class="cls-1" x="125.58" y="32.65" width="2.42" height="13.73"/><rect class="cls-1" x="130.58" y="32.65" width="2.42" height="13.73"/></g></g></svg>